<svg xmlns="http://www.w3.org/2000/svg" xmlns:xlink="http://www.w3.org/1999/xlink" width="1080" zoomAndPan="magnify" viewBox="0 0 810 809.999993" height="1080" preserveAspectRatio="xMidYMid meet" version="1.0"><defs><g/></defs><g fill="#008000" fill-opacity="1"><g transform="translate(95.770319, 671.999986)"><g><path d="M 524.703125 -309.375 C 524.703125 -332.8125 522.160156 -351.363281 517.078125 -365.03125 C 512.003906 -378.707031 503.609375 -389.0625 491.890625 -396.09375 C 480.171875 -403.125 464.789062 -407.613281 445.75 -409.5625 C 426.707031 -411.519531 403.125 -412.5 375 -412.5 L 243.453125 -412.5 C 218.453125 -412.5 197.40625 -411.765625 180.3125 -410.296875 C 163.226562 -408.835938 149.117188 -405.859375 137.984375 -401.359375 C 126.859375 -396.867188 118.265625 -390.425781 112.203125 -382.03125 C 106.148438 -373.632812 101.753906 -362.5 99.015625 -348.625 C 96.285156 -334.757812 94.722656 -317.71875 94.328125 -297.5 C 93.941406 -277.289062 93.75 -253.125 93.75 -225 C 93.75 -196.875 93.992188 -172.703125 94.484375 -152.484375 C 94.972656 -132.273438 96.582031 -115.234375 99.3125 -101.359375 C 102.050781 -87.492188 106.398438 -76.363281 112.359375 -67.96875 C 118.316406 -59.570312 126.859375 -53.125 137.984375 -48.625 C 149.117188 -44.132812 163.226562 -41.15625 180.3125 -39.6875 C 197.40625 -38.226562 218.453125 -37.5 243.453125 -37.5 L 375 -37.5 C 396.875 -37.5 415.722656 -38.082031 431.546875 -39.25 C 447.367188 -40.425781 460.84375 -42.578125 471.96875 -45.703125 C 483.101562 -48.828125 492.085938 -53.125 498.921875 -58.59375 C 505.765625 -64.0625 511.085938 -70.945312 514.890625 -79.25 C 518.703125 -87.550781 521.289062 -97.507812 522.65625 -109.125 C 524.019531 -120.75 524.703125 -134.375 524.703125 -150 L 580.953125 -150 C 580.953125 -131.25 579.78125 -114.304688 577.4375 -99.171875 C 575.09375 -84.035156 570.941406 -70.554688 564.984375 -58.734375 C 559.035156 -46.921875 551.078125 -36.71875 541.109375 -28.125 C 531.148438 -19.53125 518.550781 -12.445312 503.3125 -6.875 C 488.082031 -1.3125 469.921875 2.785156 448.828125 5.421875 C 427.734375 8.054688 403.125 9.375 375 9.375 L 243.453125 9.375 C 209.078125 9.375 180.125 7.273438 156.59375 3.078125 C 133.0625 -1.117188 113.675781 -7.46875 98.4375 -15.96875 C 83.207031 -24.46875 71.441406 -35.160156 63.140625 -48.046875 C 54.835938 -60.941406 48.78125 -76.078125 44.96875 -93.453125 C 41.164062 -110.835938 38.96875 -130.46875 38.375 -152.34375 C 37.789062 -174.21875 37.5 -198.4375 37.5 -225 C 37.5 -251.5625 37.789062 -275.78125 38.375 -297.65625 C 38.96875 -319.53125 41.164062 -339.160156 44.96875 -356.546875 C 48.78125 -373.929688 54.835938 -389.066406 63.140625 -401.953125 C 71.441406 -414.847656 83.207031 -425.539062 98.4375 -434.03125 C 113.675781 -442.53125 133.0625 -448.878906 156.59375 -453.078125 C 180.125 -457.273438 209.078125 -459.375 243.453125 -459.375 L 375 -459.375 C 403.125 -459.375 427.734375 -458.054688 448.828125 -455.421875 C 469.921875 -452.785156 488.082031 -448.78125 503.3125 -443.40625 C 518.550781 -438.039062 531.148438 -431.253906 541.109375 -423.046875 C 551.078125 -414.847656 559.035156 -405.179688 564.984375 -394.046875 C 570.941406 -382.910156 575.09375 -370.3125 577.4375 -356.25 C 579.78125 -342.1875 580.953125 -326.5625 580.953125 -309.375 Z M 524.703125 -309.375 "/></g></g></g></svg>